<svg width="287" height="77" viewBox="0 0 287 77" fill="none" xmlns="http://www.w3.org/2000/svg">
<path d="M56.082 46.4561C55.1667 47.7673 53.8864 48.7507 52.2412 49.4062C50.6084 50.0495 48.7035 50.3711 46.5264 50.3711C44.3245 50.3711 42.3701 49.8577 40.6631 48.8311C38.9561 47.792 37.6325 46.32 36.6924 44.415C35.7646 42.5101 35.2884 40.3021 35.2637 37.791V35.4346C35.2637 31.3649 36.21 28.2106 38.1025 25.9717C40.0075 23.7327 42.6794 22.6133 46.1182 22.6133C48.9385 22.6133 51.2083 23.3369 52.9277 24.7842C54.6471 26.2191 55.6986 28.2601 56.082 30.9072H52.5195C51.8516 27.3324 49.724 25.5449 46.1367 25.5449C43.7493 25.5449 41.9372 26.3861 40.7002 28.0684C39.4756 29.7383 38.8571 32.1628 38.8447 35.3418V37.5498C38.8447 40.5804 39.5374 42.9925 40.9229 44.7861C42.3083 46.5674 44.1823 47.458 46.5449 47.458C47.8809 47.458 49.0498 47.3096 50.0518 47.0127C51.0537 46.7158 51.8825 46.2148 52.5381 45.5098V39.4424H46.2852V36.5479H56.082V46.4561ZM60.5908 39.7764C60.5908 37.8096 60.9743 36.0407 61.7412 34.4697C62.5205 32.8988 63.5967 31.6865 64.9697 30.833C66.3551 29.9795 67.9323 29.5527 69.7012 29.5527C72.4349 29.5527 74.6429 30.499 76.3252 32.3916C78.0199 34.2842 78.8672 36.8014 78.8672 39.9434V40.1846C78.8672 42.139 78.4899 43.8955 77.7354 45.4541C76.9932 47.0003 75.9232 48.2064 74.5254 49.0723C73.14 49.9382 71.5443 50.3711 69.7383 50.3711C67.0169 50.3711 64.8089 49.4248 63.1143 47.5322C61.432 45.6396 60.5908 43.1348 60.5908 40.0176V39.7764ZM64.042 40.1846C64.042 42.4111 64.5553 44.1986 65.582 45.5469C66.6211 46.8952 68.0065 47.5693 69.7383 47.5693C71.4824 47.5693 72.8678 46.889 73.8945 45.5283C74.9212 44.1553 75.4346 42.238 75.4346 39.7764C75.4346 37.5745 74.9089 35.7933 73.8574 34.4326C72.8184 33.0596 71.4329 32.373 69.7012 32.373C68.0065 32.373 66.6396 33.0472 65.6006 34.3955C64.5615 35.7438 64.042 37.6735 64.042 40.1846ZM87.5322 50H83.9697V22.9844H87.5322V50ZM96.7725 29.9238L96.8838 32.4473C98.4176 30.5176 100.422 29.5527 102.896 29.5527C107.138 29.5527 109.278 31.9463 109.315 36.7334V50H105.883V36.7148C105.87 35.2676 105.536 34.1976 104.881 33.5049C104.238 32.8122 103.229 32.4658 101.856 32.4658C100.743 32.4658 99.766 32.7627 98.9248 33.3564C98.0837 33.9502 97.4281 34.7295 96.958 35.6943V50H93.5254V29.9238H96.7725ZM119.149 25.0625V29.9238H122.897V32.5771H119.149V45.0273C119.149 45.8314 119.316 46.4375 119.65 46.8457C119.984 47.2415 120.553 47.4395 121.357 47.4395C121.753 47.4395 122.298 47.3652 122.99 47.2168V50C122.087 50.2474 121.209 50.3711 120.355 50.3711C118.822 50.3711 117.665 49.9072 116.886 48.9795C116.106 48.0518 115.717 46.7344 115.717 45.0273V32.5771H112.062V29.9238H115.717V25.0625H119.149ZM135.255 50.3711C132.534 50.3711 130.319 49.4805 128.612 47.6992C126.905 45.9056 126.052 43.512 126.052 40.5186V39.8877C126.052 37.8962 126.429 36.1211 127.184 34.5625C127.951 32.9915 129.014 31.7669 130.375 30.8887C131.748 29.998 133.232 29.5527 134.828 29.5527C137.438 29.5527 139.467 30.4124 140.914 32.1318C142.361 33.8512 143.085 36.3128 143.085 39.5166V40.9453H129.484C129.534 42.9245 130.109 44.5264 131.21 45.751C132.323 46.9632 133.733 47.5693 135.44 47.5693C136.653 47.5693 137.679 47.3219 138.521 46.8271C139.362 46.3324 140.098 45.6768 140.729 44.8604L142.825 46.4932C141.143 49.0785 138.619 50.3711 135.255 50.3711ZM134.828 32.373C133.443 32.373 132.28 32.8802 131.34 33.8945C130.4 34.8965 129.818 36.3066 129.596 38.125H139.652V37.8652C139.553 36.1211 139.083 34.7728 138.242 33.8203C137.401 32.8555 136.263 32.373 134.828 32.373ZM156.778 33.0039C156.259 32.9173 155.696 32.874 155.09 32.874C152.839 32.874 151.311 33.8327 150.507 35.75V50H147.074V29.9238H150.414L150.47 32.2432C151.595 30.4495 153.191 29.5527 155.257 29.5527C155.925 29.5527 156.432 29.6393 156.778 29.8125V33.0039ZM163.198 29.9238L163.31 32.4473C164.843 30.5176 166.847 29.5527 169.321 29.5527C173.564 29.5527 175.704 31.9463 175.741 36.7334V50H172.309V36.7148C172.296 35.2676 171.962 34.1976 171.307 33.5049C170.663 32.8122 169.655 32.4658 168.282 32.4658C167.169 32.4658 166.192 32.7627 165.351 33.3564C164.509 33.9502 163.854 34.7295 163.384 35.6943V50H159.951V29.9238H163.198ZM192.607 44.6748C192.607 43.7471 192.255 43.0296 191.55 42.5225C190.857 42.0029 189.639 41.5576 187.895 41.1865C186.163 40.8154 184.784 40.3701 183.757 39.8506C182.743 39.3311 181.988 38.7126 181.493 37.9951C181.011 37.2777 180.77 36.4242 180.77 35.4346C180.77 33.7894 181.462 32.3978 182.848 31.2598C184.245 30.1217 186.027 29.5527 188.191 29.5527C190.467 29.5527 192.311 30.1403 193.721 31.3154C195.143 32.4906 195.854 33.9935 195.854 35.8242H192.403C192.403 34.8841 192.001 34.0739 191.197 33.3936C190.406 32.7132 189.404 32.373 188.191 32.373C186.942 32.373 185.965 32.6452 185.26 33.1895C184.555 33.7337 184.202 34.445 184.202 35.3232C184.202 36.152 184.53 36.7767 185.186 37.1973C185.841 37.6178 187.022 38.0199 188.729 38.4033C190.449 38.7868 191.84 39.2445 192.904 39.7764C193.968 40.3083 194.754 40.9515 195.261 41.7061C195.78 42.4482 196.04 43.3574 196.04 44.4336C196.04 46.2272 195.323 47.6683 193.888 48.7568C192.453 49.833 190.591 50.3711 188.303 50.3711C186.695 50.3711 185.272 50.0866 184.035 49.5176C182.798 48.9486 181.827 48.1569 181.122 47.1426C180.429 46.1159 180.083 45.0088 180.083 43.8213H183.516C183.577 44.9717 184.035 45.887 184.889 46.5674C185.755 47.2354 186.893 47.5693 188.303 47.5693C189.602 47.5693 190.641 47.3096 191.42 46.79C192.212 46.2581 192.607 45.5531 192.607 44.6748ZM203.944 32.3545C205.466 30.4867 207.445 29.5527 209.882 29.5527C214.125 29.5527 216.265 31.9463 216.302 36.7334V50H212.869V36.7148C212.857 35.2676 212.523 34.1976 211.867 33.5049C211.224 32.8122 210.216 32.4658 208.843 32.4658C207.729 32.4658 206.752 32.7627 205.911 33.3564C205.07 33.9502 204.414 34.7295 203.944 35.6943V50H200.512V21.5H203.944V32.3545ZM225.171 50H221.738V29.9238H225.171V50ZM221.46 24.5986C221.46 24.042 221.627 23.5719 221.961 23.1885C222.307 22.805 222.814 22.6133 223.482 22.6133C224.15 22.6133 224.658 22.805 225.004 23.1885C225.35 23.5719 225.523 24.042 225.523 24.5986C225.523 25.1553 225.35 25.6191 225.004 25.9902C224.658 26.3613 224.15 26.5469 223.482 26.5469C222.814 26.5469 222.307 26.3613 221.961 25.9902C221.627 25.6191 221.46 25.1553 221.46 24.5986ZM247.641 40.1846C247.641 43.2399 246.942 45.7015 245.544 47.5693C244.146 49.4372 242.254 50.3711 239.866 50.3711C237.429 50.3711 235.512 49.598 234.114 48.0518V57.7188H230.682V29.9238H233.817L233.984 32.1504C235.382 30.4186 237.324 29.5527 239.811 29.5527C242.223 29.5527 244.128 30.4619 245.525 32.2803C246.936 34.0986 247.641 36.6283 247.641 39.8691V40.1846ZM244.208 39.7949C244.208 37.5312 243.726 35.7438 242.761 34.4326C241.796 33.1214 240.472 32.4658 238.79 32.4658C236.712 32.4658 235.153 33.3874 234.114 35.2305V44.8232C235.141 46.654 236.712 47.5693 238.827 47.5693C240.472 47.5693 241.777 46.9199 242.742 45.6211C243.719 44.3099 244.208 42.3678 244.208 39.7949Z" fill="#F4EDE8"/>
<rect width="287" height="3" transform="translate(0 74)" fill="#A682F9"/>
<rect width="287" height="3" transform="translate(0 74)" fill="#A682F9"/>
<rect width="287" height="3" transform="translate(0 74)" fill="#A682F9"/>
<rect width="287" height="3" fill="#A682F9"/>
<rect width="287" height="3" fill="#A682F9"/>
<rect width="287" height="3" fill="#A682F9"/>
<path d="M16 31L17.5716 35.8369H22.6574L18.5429 38.8262L20.1145 43.6631L16 40.6738L11.8855 43.6631L13.4571 38.8262L9.3426 35.8369H14.4284L16 31Z" fill="#C4C4C4"/>
<path d="M267 31L268.572 35.8369H273.657L269.543 38.8262L271.114 43.6631L267 40.6738L262.886 43.6631L264.457 38.8262L260.343 35.8369H265.428L267 31Z" fill="#C4C4C4"/>
</svg>
